<svg width="296" height="142" viewBox="0 0 296 142" fill="none" xmlns="http://www.w3.org/2000/svg">
<g filter="url(#filter0_di_13_34442)">
<path d="M281.47 129.195C281.36 127.802 280.702 126.534 279.7 125.824C267.955 117.486 264.679 101.533 264.679 87.988C264.679 80.59 260.321 73.8389 253.005 69.8823V64.1227C253.005 61.7052 251.381 59.7366 249.387 59.7366H241.691C240.329 54.2475 237.246 49.3594 232.763 45.5877C227.468 41.1358 220.648 38.6858 213.561 38.6857C200.673 38.6857 189.372 39.2027 177.242 34.4055C166.157 30.0196 156.799 24.2265 150.17 17.6608C148.837 16.3322 146.847 16.417 145.599 17.6608C138.97 24.233 125.143 30.0196 114.063 34.4055C103.262 38.6773 93.6971 38.6857 82.2181 38.6857C75.1314 38.6858 68.3113 41.1358 63.0166 45.5877C58.5336 49.3594 55.4502 54.2475 54.0884 59.7366H46.5497C44.5561 59.7366 42.933 61.7052 42.933 64.1227V69.8823C35.6173 73.8389 31.2594 80.59 31.2593 87.988C31.2593 101.538 27.9875 117.482 16.2373 125.824C15.231 126.54 14.5791 127.808 14.4697 129.195H281.47Z" fill="url(#paint0_linear_13_34442)"/>
</g>
<mask id="mask0_13_34442" style="mask-type:alpha" maskUnits="userSpaceOnUse" x="14" y="16" width="268" height="114">
<path d="M281.47 129.196C281.36 127.803 280.702 126.535 279.7 125.825C267.955 117.487 264.679 101.534 264.679 87.9888C264.679 80.5908 260.321 73.8397 253.005 69.8831V64.1235C253.005 61.706 251.381 59.7374 249.388 59.7374H241.691C240.33 54.2484 237.246 49.3602 232.763 45.5886C227.468 41.1366 220.648 38.6866 213.562 38.6866C200.673 38.6866 189.372 39.2035 177.242 34.4063C166.157 30.0204 156.799 24.2273 150.17 17.6617C148.837 16.333 146.847 16.4178 145.599 17.6617C138.97 24.2339 125.143 30.0204 114.064 34.4063C103.262 38.6781 93.6973 38.6866 82.2183 38.6866C75.1315 38.6866 68.3115 41.1366 63.0168 45.5886C58.5337 49.3602 55.4504 54.2484 54.0886 59.7374H46.5499C44.5562 59.7375 42.9332 61.706 42.9332 64.1235V69.8831C35.6175 73.8397 31.2595 80.5908 31.2595 87.9888C31.2595 101.539 27.9877 117.483 16.2375 125.825C15.2312 126.54 14.5793 127.809 14.4699 129.196H281.47Z" fill="url(#paint1_linear_13_34442)"/>
</mask>
<g mask="url(#mask0_13_34442)">
<path d="M58.8627 65.806L59.0779 64.9407C60.3196 59.96 63.1339 55.5072 67.2554 52.056C72.1229 47.9827 78.4097 45.7275 84.9587 45.7275C95.9422 45.7275 105.305 45.7292 115.872 41.57C121.184 39.4773 127.188 37.0379 132.666 34.33C137.782 31.8011 142.525 28.9974 145.825 25.9667L146.466 25.3572L146.468 25.3549C147.252 24.577 148.481 24.5326 149.31 25.3549L149.313 25.3572C155.8 31.7509 164.907 37.3477 175.63 41.57L176.739 41.9925C188.178 46.2053 198.932 45.7275 210.83 45.7275V44.5738C198.478 44.5738 187.648 45.0672 176.024 40.4918C165.401 36.3086 156.432 30.7834 150.079 24.5212C148.802 23.2539 146.894 23.3348 145.699 24.5212C139.345 30.7896 126.094 36.3086 115.476 40.4918C105.125 44.5659 95.9592 44.5738 84.9587 44.5738C78.167 44.5738 71.631 46.9118 66.5568 51.1581C62.2607 54.7553 59.3063 59.4171 58.0012 64.6523H50.7765V65.806H58.8627ZM245.164 65.806V64.6523H237.787C236.482 59.4171 233.528 54.7553 229.232 51.1581C224.157 46.9118 217.621 44.5738 210.83 44.5738V45.7275C217.379 45.7275 223.666 47.9827 228.533 52.056C232.654 55.5072 235.469 59.96 236.71 64.9407L236.926 65.806H245.164ZM247.517 68.8356V75.0301L248.117 75.3534C254.832 78.9681 258.704 85.0516 258.704 91.5979C258.704 104.611 261.853 120.347 273.586 128.637L273.587 128.638C273.946 128.892 274.256 129.274 274.475 129.743H21.4647C21.6824 129.276 21.9922 128.893 22.3534 128.637L22.8966 128.243C34.1883 119.853 37.2353 104.412 37.2353 91.5979C37.2353 85.0516 41.1072 78.9681 47.8225 75.3534L48.4222 75.0301V68.8356C48.4222 66.9968 49.6325 65.806 50.7765 65.806V64.6523C48.8659 64.6523 47.3097 66.5298 47.3097 68.8356V74.3293C40.2988 78.103 36.1228 84.5418 36.1228 91.5979C36.1228 104.521 32.9871 119.728 21.7266 127.684C20.7629 128.366 20.1375 129.574 20.0317 130.896H275.908C275.801 129.569 275.172 128.36 274.213 127.684C262.957 119.731 259.817 104.517 259.817 91.5979C259.817 84.5418 255.641 78.103 248.63 74.3293V68.8356C248.63 66.53 247.074 64.6525 245.164 64.6523V65.806C246.236 65.8062 247.366 66.8526 247.503 68.4987L247.517 68.8356Z" fill="url(#paint2_linear_13_34442)"/>
</g>
<defs>
<filter id="filter0_di_13_34442" x="-3.05176e-05" y="3.8147e-06" width="295.939" height="141.439" filterUnits="userSpaceOnUse" color-interpolation-filters="sRGB">
<feFlood flood-opacity="0" result="BackgroundImageFix"/>
<feColorMatrix in="SourceAlpha" type="matrix" values="0 0 0 0 0 0 0 0 0 0 0 0 0 0 0 0 0 0 127 0" result="hardAlpha"/>
<feOffset dy="-2.22612"/>
<feGaussianBlur stdDeviation="7.23488"/>
<feComposite in2="hardAlpha" operator="out"/>
<feColorMatrix type="matrix" values="0 0 0 0 0 0 0 0 0 0 0 0 0 0 0 0 0 0 0.13 0"/>
<feBlend mode="normal" in2="BackgroundImageFix" result="effect1_dropShadow_13_34442"/>
<feBlend mode="normal" in="SourceGraphic" in2="effect1_dropShadow_13_34442" result="shape"/>
<feColorMatrix in="SourceAlpha" type="matrix" values="0 0 0 0 0 0 0 0 0 0 0 0 0 0 0 0 0 0 127 0" result="hardAlpha"/>
<feOffset dy="-0.222612"/>
<feGaussianBlur stdDeviation="2.22612"/>
<feComposite in2="hardAlpha" operator="arithmetic" k2="-1" k3="1"/>
<feColorMatrix type="matrix" values="0 0 0 0 1 0 0 0 0 1 0 0 0 0 1 0 0 0 1 0"/>
<feBlend mode="normal" in2="shape" result="effect2_innerShadow_13_34442"/>
</filter>
<linearGradient id="paint0_linear_13_34442" x1="147.97" y1="150.507" x2="147.97" y2="53.0176" gradientUnits="userSpaceOnUse">
<stop stop-color="#FFF8ED"/>
<stop offset="1" stop-color="#F0C378"/>
</linearGradient>
<linearGradient id="paint1_linear_13_34442" x1="62.8636" y1="144.74" x2="352.863" y2="117.366" gradientUnits="userSpaceOnUse">
<stop stop-color="white"/>
<stop offset="1" stop-color="#FAE4C0"/>
</linearGradient>
<linearGradient id="paint2_linear_13_34442" x1="241.592" y1="114.259" x2="25.8477" y2="22.4908" gradientUnits="userSpaceOnUse">
<stop stop-color="#FFFADF"/>
<stop offset="1" stop-color="#FFEDA3"/>
</linearGradient>
</defs>
</svg>
