<svg width="296" height="142" viewBox="0 0 296 142" fill="none" xmlns="http://www.w3.org/2000/svg">
<g filter="url(#filter0_di_11_16873)">
<path d="M281.47 16.6959C281.36 18.089 280.702 19.3572 279.7 20.0669C267.955 28.405 264.679 44.358 264.679 57.903C264.679 65.3009 260.321 72.052 253.005 76.0087V81.7682C253.005 84.1858 251.381 86.1544 249.387 86.1544H241.691C240.329 91.6434 237.246 96.5315 232.763 100.303C227.468 104.755 220.648 107.205 213.561 107.205C200.673 107.205 189.372 106.688 177.242 111.485C166.157 115.871 156.799 121.664 150.17 128.23C148.837 129.559 146.847 129.474 145.599 128.23C138.97 121.658 125.143 115.871 114.063 111.485C103.262 107.214 93.6972 107.205 82.2181 107.205C75.1314 107.205 68.3113 104.755 63.0167 100.303C58.5336 96.5315 55.4502 91.6434 54.0884 86.1544H46.5497C44.5561 86.1543 42.933 84.1857 42.933 81.7682V76.0087C35.6173 72.052 31.2594 65.301 31.2594 57.903C31.2594 44.3531 27.9876 28.4086 16.2374 20.0669C15.2311 19.3514 14.5792 18.0832 14.4698 16.6959L281.47 16.6959Z" fill="url(#paint0_linear_11_16873)"/>
</g>
<mask id="mask0_11_16873" style="mask-type:alpha" maskUnits="userSpaceOnUse" x="14" y="16" width="268" height="114">
<path d="M281.47 16.6951C281.36 18.0882 280.702 19.3563 279.7 20.0661C267.955 28.4042 264.679 44.3572 264.679 57.9021C264.679 65.3001 260.321 72.0512 253.005 76.0078V81.7674C253.005 84.1849 251.381 86.1535 249.388 86.1535H241.691C240.33 91.6426 237.246 96.5307 232.763 100.302C227.468 104.754 220.648 107.204 213.562 107.204C200.673 107.204 189.372 106.687 177.242 111.485C166.157 115.871 156.799 121.664 150.17 128.229C148.837 129.558 146.847 129.473 145.599 128.229C138.97 121.657 125.143 115.871 114.064 111.485C103.262 107.213 93.6973 107.204 82.2183 107.204C75.1316 107.204 68.3115 104.754 63.0168 100.302C58.5338 96.5307 55.4504 91.6426 54.0886 86.1535H46.5499C44.5563 86.1535 42.9332 84.1849 42.9332 81.7674V76.0078C35.6175 72.0512 31.2596 65.3001 31.2596 57.9021C31.2596 44.3523 27.9878 28.4078 16.2376 20.0661C15.2313 19.3506 14.5794 18.0824 14.4699 16.6951L281.47 16.6951Z" fill="url(#paint1_linear_11_16873)"/>
</mask>
<g mask="url(#mask0_11_16873)">
<path d="M58.8628 80.085L59.0779 80.9502C60.3196 85.931 63.1339 90.3837 67.2554 93.8349C72.1229 97.9082 78.4097 100.163 84.9587 100.163C95.9422 100.163 105.305 100.162 115.872 104.321C121.184 106.414 127.188 108.853 132.666 111.561C137.782 114.09 142.525 116.894 145.825 119.924L146.466 120.534L146.468 120.536C147.252 121.314 148.481 121.358 149.31 120.536L149.313 120.534C155.8 114.14 164.907 108.543 175.63 104.321L176.739 103.898C188.178 99.6856 198.932 100.163 210.83 100.163V101.317C198.478 101.317 187.648 100.824 176.024 105.399C165.401 109.582 156.432 115.108 150.079 121.37C148.802 122.637 146.894 122.556 145.699 121.37C139.345 115.101 126.094 109.582 115.476 105.399C105.125 101.325 95.9592 101.317 84.9587 101.317C78.1671 101.317 71.631 98.9791 66.5568 94.7329C62.2607 91.1356 59.3063 86.4738 58.0012 81.2387H50.7765V80.085H58.8628ZM245.164 80.085V81.2387H237.787C236.482 86.4738 233.528 91.1356 229.232 94.7329C224.157 98.9791 217.621 101.317 210.83 101.317V100.163C217.379 100.163 223.666 97.9082 228.533 93.8349C232.655 90.3837 235.469 85.9309 236.711 80.9502L236.926 80.085H245.164ZM247.517 77.0553V70.8609L248.117 70.5375C254.832 66.9229 258.704 60.8393 258.704 54.2931C258.704 41.2803 261.853 25.5439 273.586 17.2536L273.587 17.2524C273.946 16.9993 274.256 16.6165 274.475 16.1483L21.4648 16.1483C21.6825 16.6149 21.9922 16.998 22.3535 17.2536L22.8967 17.6479C34.1884 26.0383 37.2353 41.4789 37.2353 54.2931C37.2353 60.8393 41.1072 66.9229 47.8225 70.5375L48.4222 70.8609V77.0553C48.4223 78.8941 49.6325 80.085 50.7765 80.085V81.2387C48.8659 81.2387 47.3098 79.3611 47.3097 77.0553V71.5616C40.2988 67.7879 36.1228 61.3491 36.1228 54.2931C36.1228 41.3696 32.9871 26.1629 21.7266 18.2067C20.763 17.525 20.1375 16.3165 20.0318 14.9946L275.908 14.9946C275.801 16.3218 275.172 17.5305 274.213 18.2067C262.957 26.1595 259.817 41.3743 259.817 54.2931C259.817 61.3491 255.641 67.7879 248.63 71.5616V77.0553C248.63 79.361 247.074 81.2385 245.164 81.2387V80.085C246.236 80.0848 247.366 79.0383 247.503 77.3922L247.517 77.0553Z" fill="url(#paint2_linear_11_16873)"/>
</g>
<defs>
<filter id="filter0_di_11_16873" x="0" y="3.8147e-06" width="295.939" height="141.439" filterUnits="userSpaceOnUse" color-interpolation-filters="sRGB">
<feFlood flood-opacity="0" result="BackgroundImageFix"/>
<feColorMatrix in="SourceAlpha" type="matrix" values="0 0 0 0 0 0 0 0 0 0 0 0 0 0 0 0 0 0 127 0" result="hardAlpha"/>
<feOffset dy="-2.22612"/>
<feGaussianBlur stdDeviation="7.23488"/>
<feComposite in2="hardAlpha" operator="out"/>
<feColorMatrix type="matrix" values="0 0 0 0 0 0 0 0 0 0 0 0 0 0 0 0 0 0 0.13 0"/>
<feBlend mode="normal" in2="BackgroundImageFix" result="effect1_dropShadow_11_16873"/>
<feBlend mode="normal" in="SourceGraphic" in2="effect1_dropShadow_11_16873" result="shape"/>
<feColorMatrix in="SourceAlpha" type="matrix" values="0 0 0 0 0 0 0 0 0 0 0 0 0 0 0 0 0 0 127 0" result="hardAlpha"/>
<feOffset dy="-0.222612"/>
<feGaussianBlur stdDeviation="2.22612"/>
<feComposite in2="hardAlpha" operator="arithmetic" k2="-1" k3="1"/>
<feColorMatrix type="matrix" values="0 0 0 0 1 0 0 0 0 1 0 0 0 0 1 0 0 0 1 0"/>
<feBlend mode="normal" in2="shape" result="effect2_innerShadow_11_16873"/>
</filter>
<linearGradient id="paint0_linear_11_16873" x1="147.97" y1="-4.61578" x2="147.97" y2="92.8733" gradientUnits="userSpaceOnUse">
<stop stop-color="#FFF8ED"/>
<stop offset="1" stop-color="#F0C378"/>
</linearGradient>
<linearGradient id="paint1_linear_11_16873" x1="62.8637" y1="1.15141" x2="352.863" y2="28.5249" gradientUnits="userSpaceOnUse">
<stop stop-color="white"/>
<stop offset="1" stop-color="#FAE4C0"/>
</linearGradient>
<linearGradient id="paint2_linear_11_16873" x1="241.592" y1="31.6322" x2="25.8477" y2="123.4" gradientUnits="userSpaceOnUse">
<stop stop-color="#FFFADF"/>
<stop offset="1" stop-color="#FFEDA3"/>
</linearGradient>
</defs>
</svg>
