<svg width="268" height="114" viewBox="0 0 268 114" fill="none" xmlns="http://www.w3.org/2000/svg">
<mask id="mask0_11_13849" style="mask-type:alpha" maskUnits="userSpaceOnUse" x="0" y="0" width="268" height="113">
<path d="M267.284 112.769C267.174 111.518 266.518 110.38 265.517 109.743C253.772 102.249 255.604 86.8523 250.494 64.3363C249.018 57.8321 246.137 51.6214 238.821 48.0658V42.89C238.821 40.7175 237.198 38.9487 235.204 38.9486H227.507C226.145 34.0159 223.062 29.6232 218.579 26.2338C213.284 22.2329 206.464 20.0306 199.377 20.0306C186.489 20.0306 175.188 20.495 163.058 16.184C151.973 12.2425 142.615 7.03635 135.985 1.13612C134.653 -0.0578394 132.663 0.0184393 131.415 1.13612C124.786 7.04238 110.959 12.2425 99.879 16.184C89.0778 20.0228 79.5123 20.0306 68.0333 20.0306C60.9465 20.0307 54.1269 22.233 48.8322 26.2338C44.349 29.6232 41.2653 34.0158 39.9034 38.9486H32.3644C30.3708 38.9488 28.7482 40.7176 28.7482 42.89V48.0658C21.4326 51.6214 17.5152 57.7008 17.0743 64.3363C15.3035 90.9991 13.8027 102.246 2.05286 109.743C1.04735 110.385 0.394703 111.523 0.284302 112.769H267.284Z" fill="url(#paint0_radial_11_13849)"/>
</mask>
<g mask="url(#mask0_11_13849)">
<g filter="url(#filter0_ii_11_13849)">
<path d="M267.284 112.769C267.173 111.518 266.518 110.38 265.517 109.743C253.772 102.249 255.604 86.8523 250.494 64.3363C249.018 57.8321 246.137 51.6214 238.821 48.0658V42.89C238.821 40.7175 237.198 38.9487 235.204 38.9486H227.507C226.145 34.0159 223.062 29.6232 218.579 26.2338C213.284 22.2329 206.464 20.0306 199.377 20.0306C186.489 20.0306 175.188 20.495 163.058 16.184C151.973 12.2425 142.615 7.03635 135.985 1.13612C134.653 -0.0578394 132.663 0.0184393 131.415 1.13612C124.786 7.04238 110.959 12.2425 99.879 16.184C89.0778 20.0228 79.5123 20.0306 68.0333 20.0306C60.9465 20.0307 54.1269 22.233 48.8322 26.2338C44.349 29.6232 41.2653 34.0158 39.9034 38.9486H32.3644C30.3708 38.9488 28.7482 40.7176 28.7482 42.89V48.0658C21.4326 51.6214 17.5152 57.7008 17.0743 64.3363C15.3035 90.9991 13.8027 102.246 2.05286 109.743C1.04735 110.385 0.394705 111.523 0.284302 112.769H267.284Z" fill="url(#paint1_radial_11_13849)"/>
</g>
<path d="M267.43 112.896L267.417 112.753C267.361 112.114 267.218 111.575 266.929 111.073C266.643 110.577 266.219 110.125 265.612 109.646C259.564 102.11 256.816 94.8547 255.081 87.4455C254.213 83.7376 253.599 79.9917 252.951 76.1506C252.304 72.3143 251.624 68.3837 250.625 64.3088C250.616 57.6288 246.249 51.5517 238.953 47.9787V42.882C238.953 40.6481 237.28 38.8098 235.204 38.8098H227.607C226.223 33.8856 223.133 29.5043 218.658 26.1213C213.372 22.1268 206.575 19.9207 199.509 19.8937V19.8918H199.247V19.8928C186.406 19.8958 175.166 20.3402 163.103 16.0529C152.029 12.1154 142.687 6.91656 136.073 1.03046L136.072 1.03143C134.688 -0.208519 132.624 -0.128887 131.328 1.03143C128.029 3.97037 122.931 6.7399 117.263 9.26971C111.598 11.7984 105.375 14.0824 99.8361 16.0529C89.0589 19.8832 79.5151 19.8918 68.0343 19.8918C60.9212 19.8919 54.073 22.1022 48.754 26.1213C44.2794 29.5043 41.1894 33.8856 39.8058 38.8098H32.3654C30.2892 38.8099 28.6183 40.6482 28.6183 42.882V47.9777C21.3143 51.5542 16.9445 57.6411 16.9445 64.3293C16.9444 70.4087 16.1274 79.8752 13.8439 88.7551C12.7022 93.1948 11.1949 97.4843 9.24231 101.129C7.28927 104.775 4.89451 107.767 1.98254 109.625C0.939099 110.292 0.268111 111.47 0.155396 112.753L0.1427 112.896H267.43ZM6.86438 112.634C9.40183 110.986 11.6337 107.896 13.5597 104.037C15.587 99.9758 17.2851 95.0443 18.6486 89.9992C21.375 79.9107 22.7676 69.3452 22.7677 64.3293C22.7677 60.021 25.5792 55.5912 31.3781 52.7726L32.4982 52.2277C33.6871 51.6495 34.4415 50.4434 34.4415 49.1213V44.2551H41.6866C43.2399 44.255 44.6019 43.218 45.0157 41.7209L45.4181 40.2668C46.4573 36.5029 48.824 33.0726 52.4142 30.3576L52.8156 30.0607C56.9981 27.0435 62.3761 25.3372 68.0343 25.3371C79.0704 25.3371 89.3343 25.3732 100.792 21.5275L101.905 21.1428L101.917 21.1389H101.916L101.919 21.1379H101.918C107.471 19.1623 113.88 16.8138 119.773 14.1838C124.529 12.0609 129.284 9.6112 133.042 6.83417C133.413 6.56014 133.923 6.56832 134.281 6.85663C141.353 12.5522 150.571 17.423 161.032 21.1428C174.352 25.8765 186.849 25.3371 199.378 25.3371C205.219 25.3371 210.76 27.1552 214.997 30.3566C218.588 33.0718 220.956 36.5025 221.995 40.2668L222.397 41.7199C222.81 43.2176 224.173 44.2551 225.727 44.2551H233.129V49.1213C233.129 50.4433 233.884 51.6495 235.072 52.2277L236.193 52.7726C241.808 55.5021 244.622 59.742 244.794 63.9191V66.6389L244.796 66.6496C246.242 74.9394 247.636 84.1504 250.004 92.4533C252.333 100.622 255.611 107.933 260.827 112.634H6.86438Z" fill="url(#paint2_linear_11_13849)" stroke="url(#paint3_linear_11_13849)" stroke-width="0.261328"/>
</g>
<defs>
<filter id="filter0_ii_11_13849" x="0.284302" y="0.0474418" width="267" height="112.721" filterUnits="userSpaceOnUse" color-interpolation-filters="sRGB">
<feFlood flood-opacity="0" result="BackgroundImageFix"/>
<feBlend mode="normal" in="SourceGraphic" in2="BackgroundImageFix" result="shape"/>
<feColorMatrix in="SourceAlpha" type="matrix" values="0 0 0 0 0 0 0 0 0 0 0 0 0 0 0 0 0 0 127 0" result="hardAlpha"/>
<feOffset dy="-0.221576"/>
<feGaussianBlur stdDeviation="2.21576"/>
<feComposite in2="hardAlpha" operator="arithmetic" k2="-1" k3="1"/>
<feColorMatrix type="matrix" values="0 0 0 0 1 0 0 0 0 1 0 0 0 0 1 0 0 0 1 0"/>
<feBlend mode="normal" in2="shape" result="effect1_innerShadow_11_13849"/>
<feColorMatrix in="SourceAlpha" type="matrix" values="0 0 0 0 0 0 0 0 0 0 0 0 0 0 0 0 0 0 127 0" result="hardAlpha"/>
<feOffset dy="-0.55394"/>
<feComposite in2="hardAlpha" operator="arithmetic" k2="-1" k3="1"/>
<feColorMatrix type="matrix" values="0 0 0 0 0.32549 0 0 0 0 0.231373 0 0 0 0 0 0 0 0 0.22 0"/>
<feBlend mode="normal" in2="effect1_innerShadow_11_13849" result="effect2_innerShadow_11_13849"/>
</filter>
<radialGradient id="paint0_radial_11_13849" cx="0" cy="0" r="1" gradientUnits="userSpaceOnUse" gradientTransform="translate(133.784 19.3172) rotate(90) scale(109.027 149.897)">
<stop stop-color="#F03F48"/>
<stop offset="1" stop-color="#7E171B"/>
</radialGradient>
<radialGradient id="paint1_radial_11_13849" cx="0" cy="0" r="1" gradientTransform="matrix(4.82639e-06 261.178 253.911 12.2275 134.284 -137.415)" gradientUnits="userSpaceOnUse">
<stop stop-color="white"/>
<stop offset="1" stop-color="#E3AD55"/>
</radialGradient>
<linearGradient id="paint2_linear_11_13849" x1="231.479" y1="95.3197" x2="6.0216" y2="-0.117113" gradientUnits="userSpaceOnUse">
<stop stop-color="#FFFADF"/>
<stop offset="1" stop-color="#FFEDA3"/>
</linearGradient>
<linearGradient id="paint3_linear_11_13849" x1="0.285278" y1="112.765" x2="178.53" y2="-55.8786" gradientUnits="userSpaceOnUse">
<stop stop-color="#8E6337"/>
<stop offset="0.2279" stop-color="#C7A96E"/>
<stop offset="0.586" stop-color="#D5BA7B"/>
<stop offset="1" stop-color="#9F7847"/>
</linearGradient>
</defs>
</svg>
